 <svg  version="1.0" xmlns="http://www.w3.org/2000/svg"  width="900.000000pt" height="900.000000pt" viewBox="0 0 900.000000 900.000000"  preserveAspectRatio="xMidYMid meet">  <g transform="translate(0.000000,900.000000) scale(0.100000,-0.100000)" fill="#ffffff" stroke="none"> <path d="M20 4500 l0 -4500 4490 0 4490 0 0 4500 0 4500 -4490 0 -4490 0 0 -4500z m2060 1204 c174 -70 301 -202 351 -367 13 -44 19 -93 19 -170 l0 -108 138 3 137 3 1 85 c0 136 26 227 89 324 74 114 158 177 308 231 68 24 246 25 307 0 189 -74 304 -185 360 -345 45 -132 36 -341 -17 -361 -35 -13 -116 -11 -137 4 -16 12 -16 15 -2 42 25 48 22 209 -5 271 -118 270 -449 328 -644 113 -48 -54 -73 -107 -90 -194 -15 -79 -8 -125 18 -125 22 0 121 64 199 128 118 96 156 109 226 73 110 -56 120 -172 22 -273 l-46 -48 -397 0 c-432 0 -482 -5 -582 -58 -65 -35 -172 -143 -208 -209 -51 -96 -68 -232 -42 -344 28 -125 107 -241 208 -307 129 -82 148 -85 634 -92 l413 -5 39 -52 c22 -29 42 -67 46 -84 17 -78 -25 -147 -105 -174 -47 -15 -51 -15 -92 3 -24 10 -70 41 -103 68 -94 77 -169 125 -200 127 -39 3 -50 -36 -34 -118 23 -115 106 -231 202 -280 197 -101 432 -20 527 182 27 56 30 73 30 158 0 61 -5 108 -15 131 -18 44 -13 46 86 42 l73 -3 14 -65 c34 -165 -20 -355 -137 -478 -50 -52 -133 -108 -206 -138 -90 -37 -240 -45 -331 -19 -253 73 -423 304 -412 560 l3 79 -40 8 c-50 9 -198 10 -219 2 -13 -5 -16 -25 -16 -114 0 -88 -4 -119 -24 -174 -64 -176 -187 -301 -354 -357 -86 -30 -237 -32 -326 -5 -197 60 -353 236 -387 436 -17 103 0 239 41 321 65 131 152 217 285 279 65 31 79 33 201 38 l132 5 6 36 c7 45 6 176 -3 215 l-6 29 -115 1 c-147 1 -230 29 -340 113 -152 116 -229 314 -201 516 16 110 51 188 122 271 85 100 194 167 309 190 56 11 245 -2 290 -20z m3630 -1059 c13 -16 8 -94 -10 -140 -10 -27 -38 -33 -58 -13 -13 13 -17 149 -5 161 12 13 60 7 73 -8z m-3045 -66 c26 -26 30 -36 29 -84 0 -36 -6 -60 -17 -73 -22 -25 -21 -47 4 -88 11 -19 18 -38 14 -44 -3 -5 -26 -10 -51 -10 -40 0 -46 4 -75 43 -22 31 -39 44 -64 48 -45 8 -53 1 -57 -46 l-3 -40 -50 0 -50 0 -3 149 c-2 98 1 153 9 162 12 14 144 24 234 17 39 -3 57 -11 80 -34z m947 22 c4 -3 9 -56 10 -116 l3 -110 105 -5 105 -5 0 -40 0 -40 -162 -3 c-193 -3 -175 -22 -171 183 3 139 3 139 28 146 26 7 69 1 82 -10z m446 3 c14 -4 18 -290 3 -312 -5 -9 -25 -12 -57 -10 l-49 3 -3 158 c-2 156 -2 158 20 166 21 8 49 7 86 -5z m712 6 c16 0 19 -9 22 -52 l3 -53 73 -3 72 -3 0 43 c0 24 4 49 9 57 10 16 87 19 102 4 6 -6 8 -74 7 -164 l-3 -154 -52 -3 c-50 -3 -51 -2 -58 27 -3 17 -4 39 -1 48 11 35 -7 44 -80 41 l-69 -3 -3 -50 c-2 -27 -7 -53 -11 -58 -14 -14 -82 -11 -92 4 -10 17 -12 289 -1 305 9 15 34 23 50 18 8 -2 22 -4 32 -4z m751 -6 c13 -8 11 -58 -3 -72 -7 -7 -35 -12 -64 -12 -32 0 -54 -5 -57 -13 -2 -7 -2 -41 0 -75 3 -35 2 -84 -2 -108 l-6 -45 -47 3 -47 3 -5 115 -5 115 -55 3 c-64 4 -80 14 -80 54 0 20 6 31 23 37 23 9 332 5 348 -5z m-2390 -18 c97 -66 91 -234 -11 -286 -33 -17 -59 -20 -165 -20 l-125 0 -10 26 c-15 38 -13 277 2 292 8 8 54 12 143 12 122 0 133 -2 166 -24z m1409 3 c6 -11 10 -30 8 -42 -3 -21 -9 -22 -114 -27 -91 -4 -116 -9 -133 -24 -30 -27 -28 -81 3 -101 30 -20 87 -30 120 -21 22 5 26 12 26 46 0 33 4 41 24 46 13 3 35 4 47 2 23 -3 24 -8 27 -81 2 -50 -1 -84 -9 -93 -17 -21 -237 -20 -281 2 -59 28 -73 58 -73 155 0 71 3 89 19 105 48 48 65 53 198 53 119 1 128 0 138 -20z m1600 1 c6 -12 10 -33 8 -48 l-3 -27 -87 0 c-47 0 -90 -3 -94 -7 -4 -5 25 -8 65 -8 69 0 73 -1 106 -36 40 -41 46 -87 19 -130 -30 -44 -63 -54 -188 -54 -91 0 -118 3 -130 16 -17 16 -22 79 -7 88 5 3 44 0 87 -6 80 -11 140 -6 129 12 -3 6 -32 10 -63 10 -119 0 -189 71 -151 153 21 46 54 56 181 57 108 0 118 -2 128 -20z"/> <path d="M1815 5561 c-73 -18 -136 -55 -188 -110 -68 -71 -96 -127 -107 -213 -31 -233 130 -432 362 -446 65 -4 79 -2 84 12 7 19 -38 95 -116 191 -83 102 -100 133 -100 185 0 83 65 150 145 150 42 0 71 -16 181 -101 87 -68 158 -109 188 -109 25 0 26 2 26 56 0 76 -23 151 -70 223 -82 127 -259 198 -405 162z"/> <path d="M1800 4183 c-71 -23 -123 -52 -165 -91 -69 -64 -107 -135 -125 -233 -39 -215 155 -439 379 -439 149 0 297 85 360 208 38 73 57 235 29 245 -25 8 -78 -25 -261 -166 -26 -20 -66 -42 -88 -48 -35 -11 -45 -10 -87 10 -67 32 -87 63 -87 136 0 66 0 66 120 222 71 92 99 139 90 153 -6 10 -137 13 -165 3z"/> <path d="M2456 4511 c-4 -5 -3 -16 0 -25 9 -24 96 -22 118 3 15 17 15 19 1 25 -25 9 -113 7 -119 -3z"/> <path d="M2935 4508 c-4 -9 -5 -42 -3 -74 l3 -59 59 1 c49 1 63 6 78 24 23 28 23 62 0 90 -24 29 -128 42 -137 18z"/> </g> </svg> 